<?xml version="1.0" encoding="UTF-8"?>
<svg width="26px" height="30px" viewBox="0 0 26 30" version="1.1" xmlns="http://www.w3.org/2000/svg" xmlns:xlink="http://www.w3.org/1999/xlink">
    <title>CART</title>
    <g id="Page-1" stroke="none" stroke-width="1" fill="none" fill-rule="evenodd">
        <g id="HOME-" transform="translate(-1634.000000, -108.000000)" fill="#323C49" fill-rule="nonzero">
            <g id="HEADER" transform="translate(247.000000, 61.000000)">
                <g id="CART" transform="translate(1387.000000, 47.000000)">
                    <path d="M6.7,6.2 L2.1,6.2 C1.2,6.2 0.5,6.9 0.5,7.7 L0.5,28 C0.5,28.9 1.2,29.5 2.1,29.5 L24,29.5 C24.9,29.5 25.6,28.8 25.6,28 L25.6,7.8 C25.6,6.9 24.9,6.3 24,6.3 L19.3,6.3 L19.2,5.9 C18.7,3 15.9,0.6 13,0.6 C10.1,0.6 7.3,2.9 6.8,5.8 L6.7,6.2 Z M7.9,5.6 C8.5,3.3 10.7,1.5 13,1.5 C15.2,1.5 17.5,3.3 18.1,5.6 L18.3,6.2 L7.8,6.2 L7.9,5.6 Z M7.2,10.3 C7.5,10.3 7.7,10.1 7.7,9.8 L7.7,7.3 L18.3,7.3 L18.3,9.8 C18.3,10.1 18.6,10.3 18.8,10.3 C19,10.3 19.3,10.1 19.3,9.8 L19.3,7.3 L24.4,7.3 L24.4,28.5 L1.6,28.5 L1.6,7.3 L6.7,7.3 L6.7,9.8 C6.7,10 6.9,10.3 7.2,10.3 Z" id="Shape"></path>
                </g>
            </g>
        </g>
    </g>
</svg>