<?xml version="1.0" encoding="UTF-8"?>
<svg width="18px" height="18px" viewBox="0 0 18 18" version="1.1" xmlns="http://www.w3.org/2000/svg" xmlns:xlink="http://www.w3.org/1999/xlink">
    <title>magnifying-glass</title>
    <g id="Page-1" stroke="none" stroke-width="1" fill="none" fill-rule="evenodd">
        <g id="HOME-" transform="translate(-1156.000000, -115.000000)" fill="#323C49" fill-rule="nonzero">
            <g id="HEADER" transform="translate(247.000000, 61.000000)">
                <g id="BARRE-DE-RECHERCHE-" transform="translate(480.000000, 42.000000)">
                    <g id="magnifying-glass" transform="translate(429.000000, 12.000000)">
                        <path d="M17.8443114,17.0230469 L13.4690619,12.6806966 C14.6427146,11.3415411 15.3532934,9.59429977 15.3532934,7.68461651 C15.3532934,3.48093612 11.9081836,0.0656934307 7.67664671,0.0656934307 C3.44111776,0.0656934307 0,3.48489812 0,7.68461651 C0,11.8843349 3.44510978,15.3035396 7.67664671,15.3035396 C9.6007984,15.3035396 11.3612774,14.5983039 12.7105788,13.4334763 L17.0858283,17.7758266 C17.1896208,17.8788386 17.3293413,17.9343066 17.4650699,17.9343066 C17.6007984,17.9343066 17.740519,17.8828006 17.8443114,17.7758266 C18.0518962,17.5698027 18.0518962,17.2290708 17.8443114,17.0230469 Z M1.0738523,7.68461651 C1.0738523,4.07127389 4.03592814,1.13543302 7.67265469,1.13543302 C11.3133733,1.13543302 14.2714571,4.07523589 14.2714571,7.68461651 C14.2714571,11.2939971 11.3133733,14.237762 7.67265469,14.237762 C4.03592814,14.237762 1.0738523,11.2979591 1.0738523,7.68461651 Z" id="Shape"></path>
                    </g>
                </g>
            </g>
        </g>
    </g>
</svg>