<?xml version="1.0" encoding="UTF-8"?><svg xmlns="http://www.w3.org/2000/svg" viewBox="0 0 57.3 31.13"><defs><style>.d{fill:#049871;}</style></defs><g id="a"/><g id="b"><g id="c"><g><path class="d" d="M49.21,31.13c-2.38,0-4.43-1.67-4.91-3.99h-15.95c-.48,2.31-2.52,3.99-4.9,3.99-2.39,0-4.43-1.67-4.91-4h-7.63c-.56,0-1.02-.46-1.02-1.02v-5.84H3.13c-.56,0-1.02-.46-1.02-1.02s.46-1.02,1.02-1.02H14.45c.56,0,1.02,.46,1.02,1.02s-.46,1.02-1.02,1.02h-2.51v4.82h6.61c.48-2.32,2.52-3.99,4.9-4,2.38,0,4.43,1.67,4.91,4h12.83V2.04H11.94v2.53h5.13c.56,0,1.02,.46,1.02,1.02s-.46,1.02-1.02,1.02H6.19c-.56,0-1.02-.46-1.02-1.02s.46-1.02,1.02-1.02h3.72V1.74c0-.96,.78-1.74,1.75-1.74h29.83c.96,0,1.74,.78,1.74,1.74V7.87h6.45c.86,0,1.66,.47,2.08,1.22l4.82,8.65c.47,.84,.72,1.79,.72,2.75v4.98c0,.91-.74,1.65-1.65,1.66h-1.53c-.48,2.32-2.52,3.99-4.9,4h0Zm0-7.99c-1.61,0-2.95,1.31-2.98,2.93v.1c.03,1.61,1.36,2.93,2.97,2.93,1.64,0,2.98-1.33,2.98-2.97,0-1.64-1.34-2.98-2.98-2.98v0Zm-25.76,0c-1.61,0-2.95,1.31-2.98,2.92v.11c.03,1.61,1.36,2.92,2.97,2.92,1.64,0,2.98-1.33,2.98-2.97,0-1.64-1.34-2.98-2.97-2.98v0Zm20.84,1.96c.48-2.32,2.52-4,4.9-4,2.38,0,4.43,1.67,4.91,4h1.15v-4.6c0-.62-.16-1.23-.46-1.76l-4.83-8.65c-.06-.11-.18-.18-.31-.18h-6.45v15.2h1.08Z"/><path class="d" d="M49.21,30.57c-2.14,0-3.98-1.53-4.37-3.63l-.07-.36H27.89l-.07,.36c-.39,2.1-2.22,3.63-4.36,3.64h0c-2.14,0-3.98-1.53-4.37-3.63l-.07-.36H10.92c-.25,0-.45-.2-.45-.45v-6.41H3.13c-.25,0-.45-.2-.45-.45s.2-.45,.45-.45H14.45c.25,0,.45,.2,.45,.45s-.2,.45-.45,.45h-3.07v5.95h7.65l.07-.36c.39-2.1,2.22-3.63,4.36-3.63,2.15,0,3.98,1.53,4.37,3.63l.07,.36h13.87V1.47H11.37v3.66h5.7c.25,0,.45,.2,.45,.45s-.2,.45-.45,.45H6.18c-.25,0-.45-.2-.45-.45s.2-.45,.45-.45h4.29V1.74c0-.65,.53-1.18,1.18-1.18h29.83c.65,0,1.18,.53,1.18,1.18v6.69h7.02c.66,0,1.27,.36,1.59,.93l4.82,8.65c.42,.76,.64,1.61,.64,2.48v4.98c0,.6-.49,1.09-1.09,1.09h-2l-.07,.36c-.39,2.1-2.22,3.63-4.37,3.64Zm-3.55-4.4v.02c.03,1.92,1.62,3.48,3.54,3.48,1.96,0,3.55-1.59,3.55-3.54,0-1.96-1.59-3.55-3.54-3.55h0c-1.92,0-3.51,1.56-3.54,3.48v.05h0v.06Zm-25.76,0v.02c.03,1.92,1.62,3.48,3.54,3.48,1.96,0,3.55-1.59,3.55-3.54,0-1.96-1.59-3.55-3.54-3.55h0c-1.92,0-3.51,1.56-3.54,3.48v.11Zm22.75-.49h2.12l.07-.36c.39-2.11,2.22-3.64,4.37-3.64,2.15,0,3.98,1.53,4.37,3.63l.07,.36h2.19v-5.17c0-.71-.18-1.42-.53-2.04l-4.83-8.65c-.16-.29-.47-.47-.8-.47h-7.02V25.67Z"/><path class="d" d="M7.67,16.23c-.56,0-1.02-.46-1.02-1.02s.46-1.02,1.02-1.02h2.23v-4.97c0-.56,.46-1.02,1.02-1.02s1.02,.46,1.02,1.02v4.97h11.52c.56,0,1.02,.46,1.02,1.02s-.46,1.02-1.02,1.02H7.67Z"/><path class="d" d="M7.67,15.66c-.25,0-.45-.2-.45-.45s.2-.45,.45-.45h2.8v-5.54c0-.25,.2-.45,.45-.45s.45,.2,.45,.45v5.54h12.09c.25,0,.45,.2,.45,.45s-.2,.45-.45,.45H7.67Z"/><path class="d" d="M1.02,11.52c-.56,0-1.02-.46-1.02-1.02s.46-1.02,1.02-1.02H7.18c.56,0,1.02,.46,1.02,1.02s-.46,1.02-1.02,1.02H1.02Z"/><path class="d" d="M1.02,10.95c-.25,0-.45-.2-.45-.45s.2-.45,.45-.45H7.18c.25,0,.45,.2,.45,.45s-.2,.45-.45,.45H1.02Z"/></g></g></g></svg>