<?xml version="1.0" encoding="UTF-8"?>
<svg width="30px" height="30px" viewBox="0 0 30 30" version="1.1" xmlns="http://www.w3.org/2000/svg" xmlns:xlink="http://www.w3.org/1999/xlink">
    <title>compte icon</title>
    <g id="Page-1" stroke="none" stroke-width="1" fill="none" fill-rule="evenodd">
        <g id="HOME-" transform="translate(-1402.000000, -108.000000)" fill="#323C49" fill-rule="nonzero">
            <g id="HEADER" transform="translate(247.000000, 61.000000)">
                <g id="compte-icon" transform="translate(1155.000000, 47.000000)">
                    <path d="M15,0.5 C7,0.5 0.5,7 0.5,15 C0.5,23 7,29.5 15,29.5 C23,29.5 29.5,23 29.5,15 C29.5,7 23,0.5 15,0.5 Z M24.1,24.9 C21.6,27.2 18.4,28.4 15,28.4 C11.8,28.4 8.6,27.3 6.2,25.2 L6,25 L6.2,24.7 C7.7,21.7 10.8,19.5 14.1,19.1 L14.2,19.1 L14.3,19.1 C14.7,19.2 15.3,19.2 16,19.1 L16.2,19.1 L16.3,19.1 C19.4,19.4 22.5,21.5 24.3,24.4 L24.5,24.8 L24.1,24.9 Z M11.1,13.5 C11.1,11 12.9,8.9 15,8.9 C17.2,8.9 18.9,11 18.9,13.5 C18.9,15.5 17.7,17.4 16,17.9 L15.8,17.9 C15.7,17.9 15.5,17.9 15.4,17.9 C15.1,17.8 14.6,17.9 14.2,17.9 L14.1,17.9 L14,17.9 C12.4,17.5 11.1,15.6 11.1,13.5 Z M25.1,23.8 L24.7,23.2 C23.2,20.9 20.9,19.2 18.5,18.3 L17.7,18 L18.3,17.4 C19.3,16.4 19.9,14.9 19.9,13.3 C19.9,10.2 17.7,7.7 14.9,7.7 C12.2,7.7 9.9,10.2 9.9,13.3 C9.9,14.9 10.5,16.4 11.7,17.6 L12.3,18.2 L11.6,18.5 C9,19.4 6.8,21.3 5.5,23.5 L5.2,24.1 L4.7,23.6 C2.6,21.2 1.5,18.2 1.5,15 C1.5,7.6 7.5,1.5 15,1.5 C22.5,1.5 28.5,7.5 28.5,15 C28.5,18 27.5,21 25.6,23.3 L25.1,23.8 Z" id="Shape"></path>
                </g>
            </g>
        </g>
    </g>
</svg>